# xmcd CD database file
#
# Track frame offsets:
#	150
#	67457
#	102077
#	148152
#	215653
#	232944
#
# Disc length: 3324 seconds
#
# Revision: 0
# Processed by: cddbd v1.5.2PL0 Copyright (c) Steve Scherf et al.
# Submitted via: CDex 1.77
#
DISCID=5c0cfa06
DTITLE=Masabumi Kikuchi - Susto
DYEAR=1980
DGENRE=Jazz
TTITLE0=Circle/Line
TTITLE1=City Snow
TTITLE2=Gumbo
TTITLE3=New Native
TTITLE4=Gumbo (Single version)
TTITLE5=Circle/Line (Single version)
EXTD=YEAR: 1980
EXTT0=
EXTT1=
EXTT2=
EXTT3=
EXTT4=
EXTT5=
PLAYORDER=
